<?xml version="1.0" standalone="no"?>
<!DOCTYPE svg PUBLIC "-//W3C//DTD SVG 20010904//EN"
 "http://www.w3.org/TR/2001/REC-SVG-20010904/DTD/svg10.dtd">
<svg version="1.0" xmlns="http://www.w3.org/2000/svg"
 width="260.000000pt" height="260.000000pt" viewBox="0 0 260.000000 260.000000"
 preserveAspectRatio="xMidYMid meet">
<metadata>
Created by potrace 1.14, written by Peter Selinger 2001-2017
</metadata>
<g transform="translate(0.000000,260.000000) scale(0.100000,-0.100000)"
fill="#000000" stroke="none">
<path d="M1381 2321 c-6 -10 -17 -51 -26 -92 -9 -41 -18 -81 -20 -90 -6 -27
-94 -472 -99 -499 -19 -115 -16 -110 -101 -135 -33 -9 -132 -39 -220 -67 -206
-64 -196 -62 -190 -35 19 84 35 157 40 187 6 38 42 213 81 387 30 140 31 196
4 223 -11 11 -28 20 -37 20 -85 -2 -276 -251 -318 -415 -28 -110 7 -175 94
-175 34 0 40 6 34 31 -4 13 -14 19 -33 19 -16 0 -36 7 -45 17 -53 53 62 296
205 431 82 77 90 47 46 -160 -14 -62 -27 -124 -30 -138 -3 -14 -7 -36 -10 -50
-5 -19 -55 -260 -81 -390 -2 -8 -4 -18 -4 -21 -1 -4 -67 -28 -148 -54 -301
-96 -473 -168 -493 -206 -15 -26 3 -49 37 -49 19 0 24 4 21 22 -3 19 8 27 77
56 81 34 486 174 490 170 1 -2 -24 -133 -56 -293 -32 -159 -61 -308 -64 -330
-4 -22 -9 -56 -12 -75 -3 -19 -7 -38 -9 -42 -3 -4 -7 -41 -11 -82 -5 -72 -4
-76 14 -76 31 0 41 20 41 80 -1 30 2 71 6 90 4 19 9 46 11 60 3 14 7 41 11 60
10 61 94 482 110 556 l15 71 240 73 c131 40 242 71 245 68 3 -4 -2 -46 -11
-95 -9 -48 -19 -99 -21 -113 -2 -14 -7 -36 -10 -50 -3 -14 -8 -38 -11 -55 -2
-16 -18 -99 -34 -182 -17 -84 -27 -157 -24 -163 3 -5 12 -10 20 -10 14 0 22
17 30 62 3 13 7 34 10 48 2 14 7 41 10 60 4 19 10 53 15 75 5 22 11 56 15 75
3 19 8 46 10 60 3 14 8 36 10 50 3 14 12 61 21 105 8 44 17 91 20 105 10 51
14 55 96 79 202 59 235 74 219 100 -9 14 -24 10 -219 -51 -35 -11 -66 -18 -69
-15 -3 3 5 55 17 114 12 59 24 122 27 138 2 17 25 127 49 245 61 294 59 276
40 283 -10 4 -19 -1 -25 -12z"/>
<path d="M2006 2295 c-92 -48 -217 -260 -305 -519 -23 -65 -44 -130 -47 -145
-6 -33 -9 -41 -17 -66 -6 -19 -11 -42 -23 -105 -2 -14 -7 -36 -10 -50 -3 -14
-8 -43 -10 -64 -3 -22 -8 -44 -11 -49 -3 -5 -7 -77 -8 -160 -6 -295 54 -472
179 -528 175 -78 416 151 667 638 70 135 78 157 58 169 -17 10 -32 -12 -100
-146 -120 -238 -232 -405 -347 -517 -169 -164 -303 -147 -371 48 -29 83 -33
112 -37 269 -5 232 36 451 136 732 91 254 227 466 294 456 37 -5 51 -53 52
-183 1 -66 -2 -149 -7 -184 -5 -36 -11 -82 -14 -103 -3 -20 -18 -106 -35 -190
-18 -92 -26 -156 -21 -161 17 -17 38 0 45 35 3 18 8 44 11 58 16 74 57 324 63
380 30 299 -24 446 -142 385z"/>
</g>
</svg>
